<?xml version="1.0" standalone="no"?> <!DOCTYPE svg PUBLIC "-//W3C//DTD SVG 1.0//EN" "http://www.w3.org/TR/2001/REC-SVG-20010904/DTD/svg10.dtd" > <svg xmlns="http://www.w3.org/2000/svg" width="100%" height="100%">
<defs >
<font id="keplerstdregular" horiz-adv-x="409" ><font-face
    font-family="KeplerStd-Regular"
    units-per-em="1000"
    panose-1="2 4 6 3 6 7 10 6 2 4"
    ascent="700"
    descent="-300"
    alphabetic="0" />
<missing-glyph horiz-adv-x="500" d="M0 0V700H500V0H0ZM250 395L420 650H80L250 395ZM280 350L450 95V605L280 350ZM80 50H420L250 305L80 50ZM50 605V95L220 350L50 605Z" />
<glyph unicode=" " glyph-name="space" horiz-adv-x="207" />
<glyph unicode="!" glyph-name="exclam" horiz-adv-x="220" d="M110 656H111Q133 656 153 631T174 579Q174 547 161 498Q125 343 125 204H94Q94 341 58 498Q45 548 45 579Q45 609 68 632T110 656ZM111 -14H110Q86 -14 69 4T52 50T70 95T113 113T155 95T173 50Q173
22 156 4T111 -14Z" />
<glyph unicode="&quot;" glyph-name="quotedbl" horiz-adv-x="306" d="M244 708H245Q257 708 264 691T271 659Q271 607 225 485H202Q198 611 176 678Q184 686 206 697T244 708ZM104 708H105Q117 708 124 691T131 659Q131 631 115 576T85 485H62Q60 536 53 595T36
678Q44 686 66 697T104 708Z" />
<glyph unicode="#" glyph-name="numbersign" horiz-adv-x="472" d="M298 396H195L163 268H266L298 396ZM210 589L251 592Q240 565 211 457H313Q332 527 346 589L388 592Q371 544 348 457Q420 457 439 458Q425 413 421 394Q414 394 385 394T332 395L300 269Q394
271 402 271Q394 252 384 206Q329 206 284 207L251 53L208 49Q222 95 250 207H148Q117 88 110 53L69 47L113 207Q98 206 70 206T25 206Q32 223 41 270Q49 270 60 270T90 269T128 268L161 396Q117 397 59 395Q70 427 77 458Q96 457 177 457Q185 486 196 531T210
589Z" />
<glyph unicode="$" glyph-name="dollar" horiz-adv-x="478" d="M364 144V145Q364 167 358 182T337 210T307 230T265 251Q258 254 254 256L245 42Q295 44 329 69T364 144ZM123 475V474Q123 435 150 411T230 368L240 574Q187 572 155 546T123 475ZM245 677L281 683L275
601Q337 596 375 566L392 604L415 599Q399 519 399 419L372 421Q373 488 346 525T272 572L260 356Q360 311 388 291Q442 254 442 184Q442 121 399 75Q341 17 243 13L241 -72L202 -81L208 13Q152 15 40 46Q49 101 53 213L79 217Q75 127 109 88T211 42L223 268Q213
273 194 281T159 295T135 307Q51 350 51 440Q51 512 106 559Q157 601 242 602L245 677Z" />
<glyph unicode="%" glyph-name="percent" horiz-adv-x="722" d="M157 -23L124 3Q186 88 510 565Q458 535 382 535Q346 535 303 547Q319 507 319 458Q319 374 280 324T178 274T77 316T38 441Q37 524 82 573T190 623Q226 623 255 607L270 619Q289 598 323 583T400
568Q496 568 536 612Q546 623 564 654L619 660Q601 634 509 501T324 230T157 -23ZM193 592H192Q168 592 150 573Q118 536 118 447Q116 356 149 323Q165 305 193 305Q225 305 250 343T275 459Q275 592 193 592ZM552 358H553Q622 358 653 310T685 187Q685 107 647
58T544 8Q481 8 443 50T403 174Q403 259 447 308T552 358ZM560 328H559Q532 328 515 306Q485 272 484 181Q484 88 514 56Q529 39 557 39Q592 39 617 77T642 189Q642 222 636 251T611 304T560 328Z" />
<glyph unicode="&amp;" glyph-name="ampersand" horiz-adv-x="710" d="M662 25L661 -2Q598 -17 548 -17Q517 -17 484 4T399 78Q336 -14 227 -14Q142 -14 95 29Q44 77 44 152Q44 219 94 264Q126 292 179 326Q119 406 119 472Q119 540 163 584T281 629Q348 629 387
591T427 499Q427 441 374 403Q342 378 278 342Q346 260 427 177L484 297Q513 358 541 388T603 419Q626 419 637 407T649 378Q649 360 636 349Q627 340 618 344Q606 349 597 349Q576 349 559 334T520 280Q511 265 452 156Q518 86 564 55T662 25ZM275 599H274Q242
599 220 574T198 497Q198 439 258 365Q352 426 352 500Q352 543 332 571T275 599ZM135 181V180Q135 121 171 80T264 39Q340 39 375 100Q276 206 198 301Q135 249 135 181Z" />
<glyph unicode="&apos;" glyph-name="quotesingle" horiz-adv-x="167" d="M106 708H107Q119 708 126 691T133 659Q133 603 85 485H63Q57 621 36 678Q43 686 67 697T106 708Z" />
<glyph unicode="(" glyph-name="parenleft" horiz-adv-x="332" d="M49 264V265Q49 485 157 619Q204 681 277 719L291 693Q190 638 160 496Q140 395 140 261Q140 116 161 25Q191 -116 291 -171L277 -198Q204 -160 156 -98Q49 35 49 264Z" />
<glyph unicode=")" glyph-name="parenright" horiz-adv-x="332" d="M286 260V259Q286 37 178 -98Q131 -159 59 -198L44 -172Q145 -115 175 25Q195 118 195 260Q195 404 175 496Q145 635 44 692L59 719Q130 681 179 619Q286 485 286 260Z" />
<glyph unicode="*" glyph-name="asterisk" horiz-adv-x="407" d="M233 524L230 543Q254 550 289 574T332 599Q346 602 359 589T374 567Q377 556 370 539T347 519Q341 518 300 523T233 524ZM217 501L232 514Q248 496 287 478T331 454Q339 439 336 423T325 400Q320
396 311 393T290 389T272 398Q269 402 253 442T217 501ZM188 502L207 495Q201 471 204 429T206 380Q201 367 184 362T155 358Q144 362 133 376T126 405Q128 410 153 443T188 502ZM176 527L179 507Q154 500 120 476T79 450Q69 448 59 455T43 469T34 483Q33 496 39
512T61 532Q67 533 108 528T176 527ZM191 552L177 538Q159 555 121 574T77 600Q68 613 72 629T83 652Q92 660 107 663T136 655Q140 650 157 611T191 552ZM220 550L201 555Q207 580 205 622T204 672Q209 685 226 689T253 691Q263 689 274 675T281 646Q279 642 254
609T220 550Z" />
<glyph unicode="+" glyph-name="plus" horiz-adv-x="518" d="M287 12H234V211H53V262H234V442H287V262H465V211H287V12Z" />
<glyph unicode="," glyph-name="comma" horiz-adv-x="206" d="M39 -108L31 -83Q70 -75 96 -50T123 10Q123 20 116 13Q103 5 86 5Q66 5 52 20T38 61Q39 85 56 103T98 121Q130 121 149 96T168 31Q168 -31 127 -68T39 -108Z" />
<glyph unicode="-" glyph-name="hyphen" horiz-adv-x="313" d="M35 201L47 263Q155 260 277 263L266 201Q145 204 35 201Z" />
<glyph unicode="." glyph-name="period" horiz-adv-x="206" d="M103 116H104Q131 116 147 98T164 51Q164 22 147 4T103 -14T60 4T42 51Q42 79 59 97T103 116Z" />
<glyph unicode="/" glyph-name="slash" horiz-adv-x="404" d="M318 699L366 683Q296 506 221 281L93 -99L45 -86Q58 -52 180 298L318 699Z" />
<glyph unicode="0" glyph-name="zero" horiz-adv-x="478" d="M246 625H247Q328 625 381 566Q451 485 451 316Q450 109 357 29Q305 -14 233 -14Q154 -14 103 38Q25 120 27 302Q29 501 129 584Q181 625 246 625ZM240 595H239Q196 595 168 544Q128 469 128 310Q128
155 162 78Q190 17 243 17Q288 17 317 74Q351 145 351 307Q351 471 317 542Q289 595 240 595Z" />
<glyph unicode="1" glyph-name="one" horiz-adv-x="478" d="M405 24L407 -3Q372 -3 316 -2T245 0Q221 0 169 -1T91 -3L87 24L168 32Q199 35 200 56Q204 104 204 199V397Q204 523 202 554Q202 570 190 570Q189 570 153 568T100 565L106 593Q256 609 297 625L302
622Q302 614 300 542T298 396V202Q298 106 301 56Q302 33 324 31L405 24Z" />
<glyph unicode="2" glyph-name="two" horiz-adv-x="478" d="M425 171L451 159Q424 63 419 -5Q372 0 137 0Q59 0 30 -2L28 6Q42 44 51 57Q143 125 209 202T295 343Q311 394 311 459Q311 515 288 555T214 595Q119 595 119 494Q119 477 127 449Q130 434 118 420Q103
407 84 407Q62 407 49 423T36 468Q36 525 88 574Q144 625 232 625Q307 625 353 588Q416 540 416 438Q416 357 356 289Q325 254 128 74Q324 78 376 83Q395 84 402 105Q419 150 425 171Z" />
<glyph unicode="3" glyph-name="three" horiz-adv-x="478" d="M241 625H242Q311 625 361 589T412 486Q412 421 356 381Q323 359 253 334V330Q355 325 406 277Q447 239 447 174Q447 92 386 40Q322 -14 217 -14Q134 -14 83 21T32 100Q32 122 46 136T81 151Q106 151
113 118Q134 16 222 16Q281 16 309 58T338 170Q338 303 212 303Q180 303 158 295L138 318L142 326Q191 333 225 352Q311 389 311 482Q311 529 287 561T219 593T151 571T126 507Q126 491 131 473Q134 459 123 448Q113 437 92 437Q73 437 61 450T49 490Q49 538 102
581T241 625Z" />
<glyph unicode="4" glyph-name="four" horiz-adv-x="478" d="M276 218Q278 284 279 403T282 547Q120 323 67 234Q85 228 145 223T276 218ZM17 194L8 220Q273 586 279 596Q327 612 368 629L374 625Q369 488 369 279V219Q431 220 473 234V208Q438 186 369 180Q369
128 371 0Q320 2 276 -12L270 -8Q271 4 275 178Q191 177 115 182T17 194Z" />
<glyph unicode="5" glyph-name="five" horiz-adv-x="478" d="M91 251L66 275Q81 323 95 451T107 615Q129 608 165 605Q208 600 254 600Q329 600 366 608T423 643L439 625Q415 565 371 541Q331 519 248 519Q184 519 140 526Q123 389 108 315Q135 337 176 352T259
368Q343 368 393 327T443 197Q443 125 405 72Q343 -14 219 -14Q137 -14 88 19T38 97Q38 118 52 132T87 147Q110 147 118 115Q139 16 224 16Q281 16 309 62T337 182Q337 261 299 297Q268 327 220 327Q129 327 91 251Z" />
<glyph unicode="6" glyph-name="six" horiz-adv-x="478" d="M399 622L401 591Q388 595 365 595Q261 595 199 510T131 301Q206 385 289 385Q363 385 406 336T449 208Q449 114 397 52Q340 -14 242 -14Q157 -14 104 34Q30 100 30 245Q30 441 147 548Q234 628 352
628Q379 628 399 622ZM252 336H251Q172 336 139 253Q132 236 132 206Q132 143 150 94Q180 16 243 16Q298 16 326 68Q350 117 350 187Q350 238 335 275Q311 336 252 336Z" />
<glyph unicode="7" glyph-name="seven" horiz-adv-x="478" d="M60 425L34 432Q45 468 53 532T60 619Q85 611 259 611Q421 611 441 612L446 605Q430 544 406 497Q318 330 276 218T232 -9L225 -14Q194 -15 165 -4Q145 5 145 27Q145 41 153 68Q173 143 266 310T382
530Q349 534 233 534Q145 534 120 527T84 494Q70 460 60 425Z" />
<glyph unicode="8" glyph-name="eight" horiz-adv-x="478" d="M251 626H252Q319 626 367 585T415 478Q415 430 382 395Q358 371 305 335Q386 292 414 252T443 160Q443 88 386 39Q325 -14 234 -14T90 27T37 142Q37 196 73 232Q90 249 167 301Q62 363 62 454Q62
513 97 560Q151 626 251 626ZM237 595H236Q198 595 169 568T139 492Q139 441 175 411Q202 388 278 350Q345 397 345 472Q345 526 316 560T237 595ZM248 17H249Q298 17 327 46T357 125Q357 173 323 205T195 287Q115 239 115 156Q115 99 149 58T248 17Z" />
<glyph unicode="9" glyph-name="nine" horiz-adv-x="478" d="M86 -10L85 20Q109 15 143 20Q230 27 284 101T348 304Q275 231 198 231Q120 231 75 281T30 412T77 552Q137 625 241 625Q325 625 377 573Q448 501 448 350Q448 254 418 178T338 57Q258 -17 147 -17Q108
-17 86 -10ZM235 594H234Q181 594 154 544Q129 498 129 431Q129 365 158 323T238 280Q307 280 339 343Q348 362 348 401Q348 494 315 547Q283 594 235 594Z" />
<glyph unicode=":" glyph-name="colon" horiz-adv-x="205" d="M103 114H104Q130 114 146 96T163 50Q163 22 146 4T102 -14Q77 -14 60 4T42 50Q42 77 60 95T103 114ZM104 400H105Q131 400 147 382T164 336Q164 308 147 290T103 272Q78 272 61 290T43 336Q43 363
61 381T104 400Z" />
<glyph unicode=";" glyph-name="semicolon" horiz-adv-x="206" d="M103 400H104Q130 400 146 382T163 336Q163 308 146 290T102 272Q77 272 60 290T42 336Q42 363 60 381T103 400ZM41 -107L32 -82Q70 -75 96 -50T123 10Q123 18 116 13Q103 5 87 5Q67 5 53 20T39
60T56 102T98 120Q130 120 149 96T168 31Q168 -30 127 -67T41 -107Z" />
<glyph unicode="&lt;" glyph-name="less" horiz-adv-x="498" d="M71 209V266L424 455V395L124 238V236L424 80V19L71 209Z" />
<glyph unicode="=" glyph-name="equal" horiz-adv-x="518" d="M465 171V120H52V171H465ZM465 351V300H52V351H465Z" />
<glyph unicode="&gt;" glyph-name="greater" horiz-adv-x="498" d="M424 266V209L71 19V79L370 236V238L71 395V455L424 266Z" />
<glyph unicode="?" glyph-name="question" horiz-adv-x="413" d="M216 206L192 194Q143 247 142 294Q142 326 172 360Q217 410 275 468Q299 494 299 525Q299 576 274 601T208 626Q169 626 148 605T126 555Q126 538 136 514Q142 498 127 486Q108 470 87 470Q67
470 54 484T40 524Q40 583 94 619T212 656Q288 656 334 612T380 491Q380 432 326 385Q263 330 234 296Q213 275 209 256T216 206ZM204 -14H203Q180 -14 163 4T145 50Q145 77 163 95T206 113T248 95T266 50Q266 22 249 4T204 -14Z" />
<glyph unicode="@" glyph-name="at" horiz-adv-x="756" d="M293 111V110Q293 73 316 73Q360 73 405 132T469 252Q479 281 484 303Q485 328 474 342T439 357Q396 357 359 303Q293 205 293 111ZM538 -29L551 -55Q460 -157 305 -157Q185 -157 115 -82T44 123Q44 205
71 281T149 416T276 510T447 546Q576 546 645 474T715 293Q715 185 650 107T491 28Q440 28 432 60T444 148Q413 98 368 64T280 29Q218 29 218 113Q219 174 254 245T349 356Q395 385 438 385Q482 385 499 348L507 372H572Q520 223 498 105Q494 83 498 73T517 63Q583
62 629 129T675 288Q675 391 613 451T438 512Q296 512 213 404Q123 285 123 123Q123 3 178 -55Q236 -120 335 -120Q458 -120 538 -29Z" />
<glyph unicode="A" glyph-name="A" horiz-adv-x="624" d="M631 25V-3Q562 0 508 0Q486 0 464 0T416 -2T373 -3L372 25Q417 28 429 33T437 54Q426 98 381 241Q365 242 279 242Q196 242 181 241Q136 100 132 83Q124 50 138 39T212 25V-3Q197 -3 163 -2T105 0Q92
0 51 -1T-12 -3V25Q31 28 49 39T85 91Q148 247 258 570Q273 613 275 629Q336 635 357 644Q493 189 549 57Q561 31 592 28L631 25ZM287 557L194 276Q224 274 286 274Q351 274 371 276Q360 315 346 363T314 470T287 557Z" />
<glyph unicode="B" glyph-name="B" horiz-adv-x="586" d="M23 -3V25Q74 27 89 32T106 50Q110 110 110 188V453Q110 550 107 585Q106 595 89 600T25 607V635Q39 635 80 634T146 632Q169 632 222 633T303 635Q370 635 406 626T465 595Q504 560 504 496Q504 404 422
365Q393 352 355 344V340Q448 328 489 300Q545 263 545 181Q545 89 466 38Q402 -2 277 -2Q255 -2 210 -1T143 0Q125 0 23 -3ZM207 468V352Q219 351 257 351Q328 351 363 381T398 486Q398 536 379 565Q352 606 271 606Q235 606 223 602T211 587Q207 527 207 468ZM207
320V181Q207 94 210 45Q212 28 261 28Q371 28 407 82Q431 120 431 183Q431 247 400 281Q361 323 257 323Q224 323 207 320Z" />
<glyph unicode="C" glyph-name="C" horiz-adv-x="616" d="M558 424L531 420Q525 505 484 560T363 616Q275 616 221 548Q157 468 157 319Q157 192 209 115Q263 30 365 30Q504 30 557 181L584 164Q529 -16 334 -16Q181 -16 108 84Q44 167 44 306Q44 473 145 567Q227
647 356 647Q470 647 524 591L543 643L567 635Q552 529 558 424Z" />
<glyph unicode="D" glyph-name="D" horiz-adv-x="679" d="M110 228V431Q110 535 108 577Q107 590 102 594T82 601L23 607L25 634Q34 634 79 633T148 631Q173 631 228 633T308 635Q449 635 515 593Q636 520 636 336Q636 109 466 29Q396 -3 290 -3Q265 -3 217 -2T144
0Q121 0 73 -1T17 -3L18 25L66 28Q87 30 95 36T104 56Q110 119 110 228ZM207 427V226Q207 84 210 50Q212 38 224 33T276 27Q411 27 468 104Q524 179 524 332Q524 473 467 538Q409 603 291 603Q256 603 238 600T216 594T211 582Q207 522 207 427Z" />
<glyph unicode="E" glyph-name="E" horiz-adv-x="560" d="M23 607V634Q35 634 88 633T169 631H338Q442 631 479 638Q471 568 477 469L450 468Q442 518 428 553Q416 581 394 590T301 599H227Q212 599 211 583Q207 523 207 453V343Q218 342 267 342Q333 342 353
358T380 427H405Q396 324 403 211H377Q371 271 352 290T266 309Q217 309 207 307V211Q207 103 211 56Q212 40 228 36T309 31Q381 31 409 37T455 65Q484 97 507 179L531 175Q531 160 521 91T506 -4Q442 0 294 0H169Q143 0 87 -1T15 -3L16 25L78 31Q93 33 98 40T105
69Q109 120 109 214V425Q109 519 107 577Q106 590 99 595T74 603L23 607Z" />
<glyph unicode="F" glyph-name="F" horiz-adv-x="534" d="M24 606L23 634Q35 634 89 633T177 631H320Q438 631 499 638Q490 562 494 464L468 462Q462 508 449 548Q439 578 414 589T315 600H230Q211 600 210 586Q207 556 207 449V332Q218 331 285 331Q349 331 368
347T397 421L422 418Q417 369 417 297T422 195H395Q390 231 386 245T371 275T339 294T282 298Q216 298 207 297V190Q207 117 210 60Q211 35 236 32Q241 32 268 29T310 25L307 -3Q291 -3 240 -2T163 0Q139 0 88 -1T21 -3L20 25L77 30Q102 31 105 56Q109 98 109 204V442Q109
548 107 578Q105 600 86 601L24 606Z" />
<glyph unicode="G" glyph-name="G" horiz-adv-x="676" d="M572 420H543Q538 514 494 565T370 617Q273 617 216 540Q158 458 158 314Q158 182 211 102Q268 16 375 16Q424 16 452 31T484 74Q488 104 488 204Q488 246 479 257T431 271L380 275L379 303Q394 303 450
302T529 300Q610 300 648 303V276Q609 271 599 265T587 241Q585 221 585 134Q585 72 592 33Q583 31 493 4Q423 -16 360 -16Q187 -16 108 85Q44 167 44 309Q44 408 82 484T193 602Q265 647 371 647Q433 647 477 631T541 593L563 644L586 636Q580 604 575 538T572
420Z" />
<glyph unicode="H" glyph-name="H" horiz-adv-x="703" d="M109 193V451Q109 508 107 572Q106 592 90 598T24 606L25 634Q35 634 81 633T155 631Q172 631 220 632T288 634L287 606Q242 605 227 599T210 572Q207 533 207 458V347Q233 346 346 346Q454 346 497 347V460Q497
550 495 577Q494 593 477 599T415 606V634Q432 634 460 633T510 632T544 631Q615 631 678 634V606Q631 604 615 598T598 572Q595 525 595 455V201Q595 104 598 58Q599 40 614 34T677 25L676 -3Q571 0 541 0Q507 0 414 -3V25Q461 27 477 33T494 59Q497 125 497 193V312Q419
314 345 314Q259 314 207 312V193Q207 104 210 59Q211 40 227 34T292 25V-3Q187 0 149 0Q124 0 22 -3V25Q70 27 87 33T105 57Q109 107 109 193Z" />
<glyph unicode="I" glyph-name="I" horiz-adv-x="316" d="M109 195V454Q109 542 108 568Q107 590 92 596T23 606L24 634Q108 631 155 631Q179 631 226 632T289 634V606Q242 605 227 599T210 574Q207 517 207 460V197Q207 153 210 60Q211 40 226 34T290 25V-3Q179
0 153 0Q122 0 23 -3L24 25Q72 26 87 33T105 59Q109 103 109 195Z" />
<glyph unicode="J" glyph-name="J" horiz-adv-x="307" d="M23 607L27 635Q35 635 79 633T155 631Q177 631 224 633T284 635L283 607L243 603Q225 601 219 596T212 575Q208 525 208 162Q208 100 202 47Q192 -49 140 -109Q75 -186 -6 -186Q-37 -186 -56 -173T-76
-142Q-76 -127 -62 -112T-35 -97Q-24 -97 -13 -109Q13 -141 42 -141Q95 -141 102 -34Q109 63 109 233L110 440Q110 519 108 575Q108 588 103 594T84 601Q41 606 23 607Z" />
<glyph unicode="K" glyph-name="K" horiz-adv-x="636" d="M108 203V432Q108 547 107 575Q106 593 93 598T29 606L30 635Q111 632 156 632Q180 632 225 633T281 635L284 606Q236 603 224 599T210 577Q205 517 205 435V331Q250 349 338 440T458 580Q470 596 451
599L393 605L399 634Q413 634 451 633T513 631Q523 631 623 635L624 607Q578 604 555 597T512 572Q485 547 304 366Q358 292 441 189T552 56Q568 40 587 34T655 25L649 -3Q590 -1 552 -4Q510 -5 468 -11Q460 4 417 60T319 186T249 278Q234 298 225 303T205 305V209Q205
156 209 56Q210 39 224 34T292 25L290 -3Q273 -3 224 -2T149 0Q121 0 76 -1T19 -3L20 25Q73 29 88 34T104 56Q108 132 108 203Z" />
<glyph unicode="L" glyph-name="L" horiz-adv-x="535" d="M486 189L514 188Q504 131 491 -4Q464 -1 370 -1Q312 0 163 0Q139 0 83 -1T15 -3L16 25L73 31Q89 32 95 37T103 55Q109 119 109 235V448Q109 537 107 579Q106 591 100 595T79 602L26 605L28 634Q40 634
89 633T157 631T223 632T292 634L296 605L240 601Q224 600 218 595T211 575Q207 501 207 409V233Q207 86 210 47Q211 41 215 38T235 32T282 30Q362 30 393 38T441 70Q468 109 486 189Z" />
<glyph unicode="M" glyph-name="M" horiz-adv-x="847" d="M26 606L28 634Q104 631 146 631Q202 631 222 634Q232 606 269 520T356 321T430 149Q610 576 629 634Q662 631 706 631Q727 631 765 632T816 634L819 606Q808 605 784 603T754 600Q736 599 736 578V450Q736
126 741 65Q743 45 749 39T772 31L826 25V-3Q792 0 693 0Q676 0 654 0T603 -2T558 -3L560 25Q605 28 620 34T636 58Q639 118 646 587H645L417 4L375 -6Q352 62 263 286T147 581H145Q145 339 152 99Q153 60 161 47T200 31L252 25V-3Q236 -3 194 -2T127 0Q100 0 62
-1T16 -3V25Q21 25 63 30Q83 33 92 47T104 100Q113 313 113 576L110 588Q106 600 79 602L26 606Z" />
<glyph unicode="N" glyph-name="N" horiz-adv-x="670" d="M18 606V634Q25 634 62 633T119 631Q163 631 199 634Q209 617 254 551Q313 460 541 136Q543 488 533 558Q530 583 520 592T482 603L430 606L435 634Q457 634 499 633T558 631Q579 631 616 632T664 634L665
606Q631 603 613 599Q591 594 586 563Q575 482 575 251V-3Q536 -8 517 -13L147 538Q147 119 155 70Q160 38 188 33Q193 32 206 31T232 28T256 25L254 -3Q240 -3 196 -2T121 0Q95 0 59 -1T13 -3L14 25Q33 25 67 31Q84 34 91 44T100 76Q105 109 110 255T115 564Q110
580 104 587Q95 599 64 602L18 606Z" />
<glyph unicode="O" glyph-name="O" horiz-adv-x="676" d="M345 647H346Q480 647 556 556T632 326Q632 159 552 72T337 -16Q203 -16 124 69T44 310Q44 455 123 551T345 647ZM338 618H337Q252 618 204 541Q158 466 158 322Q158 173 210 92Q258 15 346 15Q430 15
475 89Q518 165 518 313Q518 457 472 539Q426 618 338 618Z" />
<glyph unicode="P" glyph-name="P" horiz-adv-x="555" d="M109 250V441Q109 553 108 575Q107 599 86 600L21 607L28 635Q34 635 76 633T142 631Q158 631 209 633T296 635Q417 635 467 588Q519 539 519 452Q519 362 467 308Q410 251 316 251Q270 251 243 261L246
290Q274 284 299 284Q353 284 380 323Q412 365 412 446Q412 525 380 562Q346 603 269 603Q234 603 224 599T212 586Q207 509 207 424V298V173Q207 126 210 60Q211 44 218 39T246 32L308 25L307 -3Q286 -3 233 -2T151 0Q128 0 83 -1T16 -3L18 25L61 29Q87 31 95
37T104 66Q109 138 109 250Z" />
<glyph unicode="Q" glyph-name="Q" horiz-adv-x="676" d="M695 -95L696 -120Q644 -163 567 -163Q493 -163 365 -58Q317 -19 268 -9Q227 -1 190 18T119 73T64 168T44 305Q44 454 124 550T348 647Q478 647 555 559T632 324Q632 241 611 177T554 75T480 17T401 -11V-14Q428
-29 507 -63Q584 -95 638 -98Q667 -103 695 -95ZM338 618H337Q252 618 204 538Q158 459 158 317Q158 169 209 89Q259 12 347 12Q427 12 472 82Q518 158 518 317Q518 454 473 539Q427 618 338 618Z" />
<glyph unicode="R" glyph-name="R" horiz-adv-x="593" d="M108 214V423Q108 533 106 577Q105 598 81 600L19 606L24 634Q32 634 75 633T146 631Q169 631 220 632T298 634Q422 634 465 591Q504 555 504 488Q504 353 332 325V321Q405 312 448 281T502 186Q509 152
515 90Q518 55 530 39T569 22Q584 22 598 26L594 -3Q568 -11 526 -11Q466 -11 437 16T404 108Q403 120 401 146T397 188Q390 257 352 281T236 305H206V204Q206 106 209 59Q210 40 224 35T293 25L291 -3Q274 -3 225 -2T155 0Q128 0 84 -1T22 -3L23 25Q72 28 87 33T104
55Q108 103 108 214ZM206 447V335H236Q317 335 357 368T398 478Q398 531 378 561Q349 603 274 603Q249 603 224 598Q211 595 210 581Q206 529 206 447Z" />
<glyph unicode="S" glyph-name="S" horiz-adv-x="487" d="M51 203L78 209Q75 115 114 66T231 16Q286 16 321 46T356 136Q356 200 302 232Q288 240 230 270T148 314Q54 367 54 469Q54 551 108 599T249 648Q290 648 326 637T379 608L396 652L421 646Q405 557 405
453L378 450Q378 532 341 574T246 617Q197 617 168 587T139 503Q139 434 208 397Q236 382 271 364T330 333T369 310Q448 266 448 175Q448 83 383 34T217 -16Q127 -16 43 23Q48 74 51 203Z" />
<glyph unicode="T" glyph-name="T" horiz-adv-x="595" d="M342 466V245Q342 101 347 61Q348 34 372 32Q422 26 450 25L448 -3Q436 -3 378 -2T283 0Q260 0 211 -1T138 -3L134 25Q161 26 208 32Q239 35 240 59Q244 104 244 246V456Q244 574 243 601Q145 601 119
593T79 553Q65 521 44 445L18 452Q27 499 40 641Q81 631 254 631H333Q523 631 563 641Q551 542 554 460L527 450Q519 531 505 566Q498 588 469 595T343 601Q343 591 343 544T342 466Z" />
<glyph unicode="U" glyph-name="U" horiz-adv-x="664" d="M363 28H364Q440 28 482 65T531 204Q543 371 531 559Q530 577 524 586T510 598T487 602L437 607L434 635Q450 635 487 633T541 631Q561 631 600 633T651 635L656 607L618 603Q597 601 590 593T582 566Q580
516 578 426T573 272T566 171Q552 72 489 27Q432 -16 330 -16Q202 -16 144 49Q121 76 111 112T100 214Q100 249 100 397T98 570Q97 600 77 601L21 607V635Q40 635 84 633T150 631Q166 631 211 633T277 635L279 607L224 601Q205 600 202 576Q197 520 197 396T201
188Q204 141 213 117T241 72T294 40T363 28Z" />
<glyph unicode="V" glyph-name="V" horiz-adv-x="626" d="M-12 606L-14 634Q-6 634 40 633T113 631Q132 631 177 632T244 634L249 606L195 600Q182 599 179 594T179 578Q198 504 346 99Q490 477 512 573Q517 596 497 599Q479 602 437 606L432 634Q439 634 476
633T538 631Q554 631 591 632T649 634L655 606Q609 605 591 594T555 545Q484 387 344 -12Q311 -6 280 -13Q230 138 164 321T72 563Q59 589 44 596T-12 606Z" />
<glyph unicode="W" glyph-name="W" horiz-adv-x="915" d="M725 606L723 634Q736 634 773 633T834 631T889 632T938 634V606Q892 601 877 592T848 545Q799 406 671 -12Q640 -9 608 -13L456 510Q336 83 311 -12Q300 -10 247 -13Q216 106 163 285T82 545Q69 584 53
594T-8 606V634Q61 631 111 631Q131 631 174 632T239 634L245 606L193 599Q173 598 179 577Q182 564 309 112Q437 564 450 631Q472 629 521 632Q541 544 672 106Q779 442 804 562Q808 583 805 590T784 599L725 606Z" />
<glyph unicode="X" glyph-name="X" horiz-adv-x="600" d="M15 606L13 634Q103 631 140 631Q160 631 202 632T269 634L275 606L227 600Q207 597 216 580L323 391Q405 513 436 572Q444 588 441 594T420 602L375 606L380 634Q400 634 436 632T483 630Q508 629 545
631T596 634L600 606Q545 602 524 593T476 551Q433 498 341 362Q454 162 516 65Q540 31 581 29L619 25V-3Q609 -3 564 -2T491 0Q483 0 351 -3L349 25Q371 27 383 29T401 34T407 42T403 54L275 286Q180 138 151 80Q138 55 142 44T170 30L219 25L225 -3Q213 -3 174
-2T106 0L-11 -3L-15 25Q25 28 46 36T88 70Q134 128 256 317Q136 531 106 574Q93 592 75 598T15 606Z" />
<glyph unicode="Y" glyph-name="Y" horiz-adv-x="556" d="M433 25L437 -3Q420 -3 362 -2T273 0Q247 0 201 -1T130 -3L126 25Q159 28 195 33Q230 36 231 67Q236 125 236 257Q236 282 223 307Q209 337 160 423T79 558Q60 588 43 596T-17 606L-18 634Q-12 634 31
633T100 631Q130 631 174 632T232 634L236 606L191 602Q171 601 182 581Q200 542 318 327Q407 485 444 571Q456 599 436 600Q410 605 380 606L383 634Q393 634 430 633T487 631Q501 631 534 632T585 634L587 606Q544 604 526 595T487 557Q428 468 347 314Q335 291
335 265Q331 136 338 54Q340 34 363 33Q399 28 433 25Z" />
<glyph unicode="Z" glyph-name="Z" horiz-adv-x="599" d="M282 631H312H447Q453 631 546 634Q536 596 523 576L362 330Q176 47 166 31Q317 30 380 34T464 47T499 82Q519 117 542 206L568 198Q549 53 548 -6Q520 -3 447 -1Q407 0 320 0H131Q72 0 40 -3L32 14Q322
433 422 600H298Q226 600 189 594T137 576T113 541Q102 515 81 432L56 439Q77 556 68 639Q95 632 138 632Q167 631 282 631Z" />
<glyph unicode="[" glyph-name="bracketleft" horiz-adv-x="333" d="M289 -141L283 -172Q140 -168 101 -176Q104 22 104 262Q104 604 101 695Q139 686 289 695L285 665Q229 663 197 658Q182 655 181 639Q172 585 172 262Q172 -57 178 -123Q181 -139 207 -139L289 -141Z" />
<glyph unicode="\" glyph-name="backslash" horiz-adv-x="373" d="M41 681L86 702Q124 568 214 287Q231 235 272 99T329 -83L280 -101L164 294Q66 618 41 681Z" />
<glyph unicode="]" glyph-name="bracketright" horiz-adv-x="333" d="M45 662L51 693Q193 689 233 697Q230 499 230 259Q230 -82 233 -174Q214 -170 150 -170T45 -174L49 -144Q107 -144 137 -137Q152 -135 153 -118Q161 -62 161 259Q161 596 155 645Q154 660 127
660L45 662Z" />
<glyph unicode="^" glyph-name="asciicircum" horiz-adv-x="498" d="M442 289H382L247 577L117 289H55L221 639H276L442 289Z" />
<glyph unicode="_" glyph-name="underscore" horiz-adv-x="500" d="M500 -111V-169H0V-111H500Z" />
<glyph unicode="`" glyph-name="grave" horiz-adv-x="456" d="M267 500L246 485L131 601Q109 623 109 650Q110 668 119 678T142 689Q173 689 191 654L267 500Z" />
<glyph unicode="a" glyph-name="a" horiz-adv-x="479" d="M305 289V328Q305 364 286 388T227 412Q184 412 163 393T142 340Q142 326 146 310Q148 298 137 289Q122 279 103 279T72 290T59 324Q59 366 111 403T243 441Q341 441 378 385Q392 362 392 332V79Q392 34
416 34Q442 34 457 95L482 85Q463 -14 382 -14Q314 -14 305 60Q236 -14 161 -14Q105 -14 72 20T39 110Q39 178 95 200Q116 209 167 228T253 261T305 289ZM137 125V124Q137 88 155 64T207 39Q269 39 299 105Q305 122 305 146V257Q293 250 250 231T188 200Q162 186
150 171T137 125Z" />
<glyph unicode="b" glyph-name="b" horiz-adv-x="526" d="M5 636L6 664Q108 664 167 677Q167 670 165 599T163 456V367Q246 441 321 441Q408 441 453 372Q488 320 488 234Q488 117 429 52T260 -14Q183 -14 138 15Q136 14 79 -13L72 -8Q72 1 73 91T74 249V484Q74
543 71 618Q70 630 59 633T5 636ZM262 16H263Q327 16 358 73T389 225Q389 304 360 350Q331 393 279 393Q245 393 218 375T173 330Q166 319 164 298T162 200Q162 147 164 119T168 83T175 66Q201 16 262 16Z" />
<glyph unicode="c" glyph-name="c" horiz-adv-x="452" d="M400 135L426 121Q385 -14 243 -14Q140 -14 85 50Q38 106 38 207Q38 307 99 374T264 441Q333 441 376 412T419 333Q419 307 405 294T368 280Q350 280 343 287Q332 296 335 308Q335 311 337 322T339 339Q339
412 261 412Q202 412 170 358T138 219Q138 138 166 91Q202 32 272 32Q321 32 350 56T400 135Z" />
<glyph unicode="d" glyph-name="d" horiz-adv-x="536" d="M286 637L290 664Q389 667 457 677Q452 472 452 452V221Q452 86 457 49Q458 36 463 32T480 28H527L521 0Q418 -3 362 -15V56H359Q289 -14 214 -14Q127 -14 80 51Q38 109 38 198Q38 302 96 371T264 441Q329
441 363 415Q363 580 361 615Q359 632 348 635T286 637ZM136 216V215Q136 127 169 82Q200 37 254 37Q320 37 352 95Q363 113 363 251Q363 344 356 357Q327 410 266 410Q203 410 170 356T136 216Z" />
<glyph unicode="e" glyph-name="e" horiz-adv-x="452" d="M418 115Q375 -14 239 -14Q132 -14 81 54Q38 108 38 205Q38 304 93 372T248 441Q289 441 321 429T371 397T400 354T415 309T419 268Q419 236 398 228Q370 217 267 215H136Q133 135 167 85Q200 32 267 32Q313
32 342 55T392 129L418 115ZM242 411H241Q193 411 167 363T138 246H221Q278 246 310 252Q330 257 330 287Q330 335 309 373T242 411Z" />
<glyph unicode="f" glyph-name="f" horiz-adv-x="284" d="M27 397L30 427H94L95 460Q97 574 147 627Q194 679 264 679Q313 679 339 656T366 603Q366 583 353 571T318 558Q293 558 293 583Q295 648 246 648Q200 648 189 574Q182 531 185 427H284L279 396L184 390Q183
351 183 206Q183 109 185 57Q185 34 208 31Q253 26 266 25L263 -3Q249 -3 207 -2T142 0T80 -1T25 -3L26 25Q66 27 77 32T90 50Q94 98 94 204V390L27 397Z" />
<glyph unicode="g" glyph-name="g" horiz-adv-x="472" d="M129 -34L142 -52Q94 -72 94 -118Q94 -160 134 -185T236 -210Q316 -210 359 -176T403 -89Q403 -60 384 -43T335 -26Q195 -26 161 -25Q94 -25 60 12Q35 39 35 76Q35 136 101 176Q64 214 64 278Q64 355 116
398T242 441Q301 441 342 415Q400 461 436 461Q454 461 466 451T479 431Q478 420 467 408T444 390Q426 406 397 406Q382 406 364 399Q407 357 407 288Q407 212 355 171T229 129Q159 129 123 157Q83 141 83 103Q83 84 100 73T141 61T233 62T347 63Q396 63 428 37Q469
4 469 -53Q469 -145 391 -196T211 -247Q124 -247 76 -216T27 -132Q27 -93 64 -68Q91 -47 129 -34ZM235 411H234Q195 411 175 378T155 285Q155 232 174 195T235 158Q314 158 314 284Q314 411 235 411Z" />
<glyph unicode="h" glyph-name="h" horiz-adv-x="540" d="M21 640V666Q123 668 177 677Q173 599 173 490V364Q248 441 334 441Q414 441 443 385Q457 358 457 310V52Q457 36 467 32T521 25L519 -3Q506 -3 469 -2T410 0Q385 0 351 -1T306 -3L307 25Q341 26 351 31T364
51Q368 91 368 196Q368 329 359 351Q341 392 292 392Q221 392 184 330Q173 310 173 280V168Q173 98 175 54Q176 37 186 32T233 25L232 -3Q220 -3 181 -2T123 0Q99 0 66 -1T20 -3V25Q57 27 68 32T80 53Q84 115 84 207V492Q84 590 81 624Q80 634 69 637T21 640Z"
/>
<glyph unicode="i" glyph-name="i" horiz-adv-x="266" d="M132 635H133Q157 635 170 621T184 581Q184 557 168 543T128 528Q107 528 93 542T78 580T93 619T132 635ZM248 25L246 -3Q233 -3 195 -2T131 0Q103 0 70 -1T23 -3L24 25Q65 26 77 32T90 52Q94 92 94 171V280Q94
358 91 382Q90 392 79 395T27 396L29 423Q142 430 186 440Q183 368 183 285V170Q183 86 186 53Q187 37 198 32T248 25Z" />
<glyph unicode="j" glyph-name="j" horiz-adv-x="256" d="M128 635H129Q180 635 180 581Q180 558 164 543T125 528Q104 528 89 542T74 580T89 619T128 635ZM18 398V425Q100 428 180 441L182 438Q182 418 182 325T181 129Q181 8 175 -39Q165 -126 122 -175Q93 -208
57 -225T-4 -243Q-21 -243 -29 -233Q-40 -220 -43 -211L-37 -201Q-19 -205 -2 -205Q75 -205 84 -87Q92 -4 92 197Q92 328 88 382Q87 391 84 394T68 398H18Z" />
<glyph unicode="k" glyph-name="k" horiz-adv-x="495" d="M20 637V664Q119 666 176 676Q172 496 172 465V239Q202 243 250 290T327 381Q337 396 321 397L276 401L277 427Q376 427 474 433L475 407Q434 402 415 396T378 376Q328 332 264 266Q297 217 353 143T433
45Q450 26 483 25H514L512 -2Q410 -2 358 -14Q337 19 205 199Q192 218 172 215Q172 85 174 51Q175 36 186 31T237 25L235 -3Q219 -3 182 -2T118 0Q87 0 55 -1T14 -3V25Q54 26 65 31T79 51Q83 123 83 209V467Q83 590 81 621Q81 635 60 636L20 637Z" />
<glyph unicode="l" glyph-name="l" horiz-adv-x="256" d="M15 637L16 664Q98 665 176 677Q172 525 172 476V225Q172 101 174 53Q175 37 187 32T241 25L238 -3Q221 -3 180 -2T118 0Q92 0 58 -1T12 -3L13 25Q53 26 65 32T78 55Q83 150 83 229V479Q83 592 81 619Q80
631 69 634T15 637Z" />
<glyph unicode="m" glyph-name="m" horiz-adv-x="826" d="M94 175V257Q94 338 91 379Q90 390 80 392T29 395L31 422Q109 422 178 437Q180 419 184 359Q264 441 346 441Q413 441 442 398Q450 388 459 360Q483 383 500 397T551 426T621 441Q697 441 729 384Q743
359 743 319V52Q743 36 752 32T808 25L806 -3Q792 -3 755 -2T693 0T636 -1T591 -3L592 25Q626 26 637 31T650 51Q654 99 654 196Q654 332 646 349Q628 390 578 390Q510 390 473 325Q463 306 463 281V147Q463 95 465 51Q467 36 478 31T527 25L524 -3Q513 -3 474
-2T413 0T358 -1T313 -3V25Q349 27 359 32T371 55Q374 98 374 178V257Q374 333 366 351Q349 390 302 390Q231 390 194 322Q183 300 183 275V144Q183 97 185 51Q187 36 197 31T246 25L242 -3Q232 -3 193 -2T134 0Q115 0 80 -1T30 -3V25Q69 27 79 32T91 55Q94 91
94 175Z" />
<glyph unicode="n" glyph-name="n" horiz-adv-x="551" d="M29 -3V25Q67 27 78 32T91 55Q94 100 94 168V257Q94 340 91 379Q91 389 81 392T31 395L33 422Q109 422 177 437Q181 413 184 362Q261 441 339 441Q424 441 454 380Q467 355 467 318V52Q467 36 476 32T532
25L530 -3Q516 -3 479 -2T417 0Q392 0 359 -1T316 -3L317 25Q350 26 361 31T373 51Q378 86 378 197Q378 288 376 313T368 351Q349 390 301 390Q231 390 194 326Q183 308 183 275V157Q183 74 185 52Q187 37 198 32T246 25L244 -3Q233 -3 193 -2T133 0Q112 0 78 -1T29
-3Z" />
<glyph unicode="o" glyph-name="o" horiz-adv-x="513" d="M261 441H262Q360 441 417 379T475 217Q475 112 416 49T255 -14Q149 -14 94 48T38 210Q38 309 97 375T261 441ZM256 411H255Q202 411 169 362Q140 314 140 225Q140 132 169 77Q201 16 263 16Q321 16 349
69Q374 119 374 208Q374 303 346 354Q316 411 256 411Z" />
<glyph unicode="p" glyph-name="p" horiz-adv-x="535" d="M-2 -233L3 -205Q49 -202 62 -197T77 -177Q83 -84 83 25V246Q83 320 80 380Q79 391 67 394T12 395L18 422Q119 428 168 439Q169 427 170 399T173 359Q255 441 336 441Q410 441 453 386Q497 328 497 235Q497
120 440 53T277 -14Q212 -14 171 17Q171 -133 174 -171Q176 -190 189 -195T255 -202L250 -230Q240 -230 199 -229T125 -228Q70 -228 -2 -233ZM273 18H274Q340 18 370 75T400 221Q400 302 370 348Q343 390 293 390Q222 390 184 321Q173 304 173 281Q172 170 173
98Q174 81 183 68Q213 18 273 18Z" />
<glyph unicode="q" glyph-name="q" horiz-adv-x="526" d="M452 210V-10Q452 -103 458 -181Q459 -192 471 -195T530 -200L526 -228Q390 -228 267 -237L270 -208Q325 -203 341 -197T358 -178Q362 -136 362 -49V47Q295 -14 217 -14T93 34Q38 91 38 197Q38 304 99
372T270 441Q337 441 383 413L443 436H456Q452 264 452 210ZM267 410H266Q201 410 169 353T137 217Q137 128 171 80Q204 34 260 34Q322 34 353 84Q363 98 363 189Q363 302 360 337Q357 358 348 370Q323 410 267 410Z" />
<glyph unicode="r" glyph-name="r" horiz-adv-x="374" d="M94 174V256Q94 346 87 378Q84 393 67 393L28 394L29 421Q120 425 168 439L171 436Q178 394 178 339H181Q227 441 302 441Q331 441 348 423T365 381Q365 353 350 339T319 325Q296 325 290 341Q285 359
278 367T255 375Q235 375 218 351T190 292Q183 268 183 236Q183 80 185 55Q186 38 200 33T269 25L266 -3Q248 -3 205 -2T139 0T79 -1T25 -3L28 25Q65 26 76 31T90 49Q94 91 94 174Z" />
<glyph unicode="s" glyph-name="s" horiz-adv-x="401" d="M334 288L308 282Q304 340 274 375T197 411Q163 411 143 392T123 340Q123 303 161 283Q177 275 226 256T293 228Q365 197 365 126Q365 57 312 22T186 -14Q109 -14 47 15Q50 93 48 161L73 165Q77 118 91
86Q118 17 199 17Q240 17 263 37T287 90Q287 128 251 146Q227 157 132 198Q52 232 52 307Q52 369 95 405T205 441Q234 441 262 433T302 415L314 449L340 441Q330 368 334 288Z" />
<glyph unicode="t" glyph-name="t" horiz-adv-x="338" d="M176 427H315L311 396L175 390Q175 378 174 329T173 235Q173 101 178 66Q184 26 224 26Q284 26 306 111H318L329 75Q291 -14 189 -14Q124 -14 99 21Q82 42 82 84Q82 120 82 176T84 300T86 390L17 396L22
427H87V539Q145 562 172 585L181 582Q176 517 176 427Z" />
<glyph unicode="u" glyph-name="u" horiz-adv-x="540" d="M297 400L295 427Q307 427 397 430Q430 432 460 435Q456 315 456 289V171Q456 79 460 47Q462 33 473 30T531 27L528 0Q486 -2 442 -6Q409 -8 368 -15Q366 37 366 80Q339 43 292 15T188 -14Q114 -14 92
30Q79 52 79 89Q82 245 82 302Q82 357 80 385Q79 396 68 398T17 401L21 428Q77 428 114 432Q155 435 179 438Q171 384 171 236Q169 99 177 69Q185 33 228 33Q270 33 304 60T356 128Q367 155 367 188V285Q367 353 364 383Q363 394 352 396T297 400Z" />
<glyph unicode="v" glyph-name="v" horiz-adv-x="453" d="M-5 402V430Q58 427 92 427Q113 427 152 428T205 430L209 402L172 398Q159 397 157 392T159 373Q170 337 259 94Q334 290 356 371Q364 395 342 398L298 402V430Q315 430 347 429T393 427Q412 427 438 428T473
430L472 402Q437 399 423 389T394 348Q333 210 255 -9Q239 -9 205 -13Q110 253 63 360Q51 386 40 393T-5 402Z" />
<glyph unicode="w" glyph-name="w" horiz-adv-x="701" d="M-3 403V430Q60 427 97 427Q100 427 214 430L217 403L174 398Q162 397 159 392T160 374Q173 329 208 220T246 101Q262 147 304 276T354 428Q379 427 402 430Q403 426 521 97Q589 300 603 370Q607 384 603
390T584 398L538 403L540 430Q557 430 590 429T640 427Q662 427 689 428T722 430L723 403Q685 399 672 390T643 346Q608 264 517 -9Q490 -9 467 -13Q455 25 410 147T351 311L239 -13Q218 -9 190 -9Q168 65 126 191T66 362Q56 387 44 394T-3 403Z" />
<glyph unicode="x" glyph-name="x" horiz-adv-x="468" d="M11 402V430Q19 430 54 429T111 427Q127 427 145 427T185 429T220 430L221 402L197 399Q178 398 189 380Q200 361 222 324T252 273Q308 355 322 381Q331 396 310 398L281 402L283 430Q294 430 324 429T371
427T417 428T457 430L455 402Q421 400 403 394T366 370Q329 329 269 245Q363 92 392 54Q405 38 421 32T477 25V-3Q470 -3 431 -2T366 0Q349 0 253 -3L252 25L278 28Q297 32 288 49L209 180Q149 98 128 54Q116 32 139 29L177 25L174 -3Q157 -3 122 -2T72 0Q53 0
27 -1T-8 -3V25Q26 27 44 36T84 69Q104 92 191 209Q105 350 94 366Q78 388 63 394T11 402Z" />
<glyph unicode="y" glyph-name="y" horiz-adv-x="446" d="M-6 402L-4 430Q77 427 98 427Q118 427 156 428T207 430L211 402L175 398Q155 395 162 375Q181 320 222 211T265 96Q322 251 348 363Q353 383 348 390T322 399L286 402L290 430Q301 430 331 429T376 427Q389
427 419 428T466 430L464 402Q431 400 418 390T390 347Q341 227 237 -82Q209 -169 179 -207T106 -245Q75 -245 57 -228T39 -185Q39 -162 52 -149T83 -135Q105 -135 112 -155Q121 -185 140 -185Q150 -185 159 -175T179 -139T195 -101T212 -54L222 -20Q210 -6 196
28Q89 312 66 360Q55 383 46 390T16 400L-6 402Z" />
<glyph unicode="z" glyph-name="z" horiz-adv-x="451" d="M78 276L51 271Q61 410 61 437Q87 427 170 427H255Q289 427 406 430Q402 402 381 371Q369 351 274 207T157 29Q266 29 317 36Q348 41 366 67T399 166L425 159Q412 76 408 -5Q351 0 150 0Q81 0 45 -2L34
17Q106 106 186 228T290 397Q205 397 166 393Q135 390 122 382T99 350Q92 333 78 276Z" />
<glyph unicode="{" glyph-name="braceleft" horiz-adv-x="334" d="M287 709L284 678Q228 674 209 650T195 562Q197 544 201 509T208 449T210 401Q209 343 183 311T99 257Q157 234 183 202T210 106Q210 94 200 -31Q194 -108 209 -134T285 -165V-196Q229 -202 175
-163T120 -41Q120 -15 124 59T128 161Q128 204 107 222T40 241L34 272Q81 273 104 291T128 354Q128 381 124 447T120 534Q120 583 137 620T181 675T235 702T287 709Z" />
<glyph unicode="|" glyph-name="bar" horiz-adv-x="252" d="M93 751H160V-249H93V751Z" />
<glyph unicode="}" glyph-name="braceright" horiz-adv-x="334" d="M48 -196L50 -165Q107 -161 127 -137T141 -49Q139 -29 135 4T128 63T125 112Q126 171 152 202T236 256Q177 278 151 311T125 408Q125 443 135 543Q142 620 127 646T50 677L49 708Q83 711 119
699T186 648T216 552Q216 527 212 453T207 353Q207 310 229 291T295 272L300 241Q254 240 231 222T207 159Q207 131 211 65T216 -22Q216 -71 199 -107T154 -162T99 -189T48 -196Z" />
<glyph unicode="~" glyph-name="asciitilde" horiz-adv-x="520" d="M419 327L468 319Q462 140 353 140Q322 140 296 160T239 219Q215 250 199 264T165 278Q112 278 101 148L51 154Q58 333 169 333Q223 333 277 262Q328 196 357 196Q382 196 397 222T419 327Z" />
</font>
</defs>
</svg>
