<?xml version="1.0" standalone="no"?> <!DOCTYPE svg PUBLIC "-//W3C//DTD SVG 1.0//EN" "http://www.w3.org/TR/2001/REC-SVG-20010904/DTD/svg10.dtd" > <svg xmlns="http://www.w3.org/2000/svg" width="100%" height="100%">
<defs >
<font id="avalonplain" horiz-adv-x="995" ><font-face
    font-family="AvalonPlain"
    units-per-em="2048"
    panose-1="2 11 5 0 0 0 0 0 0 0"
    ascent="1544"
    descent="-448"
    alphabetic="0" />
<missing-glyph horiz-adv-x="1024" d="M64 0V1544H960V0H64ZM896 64V1480H128V64H896Z" />
<glyph unicode=" " glyph-name="space" horiz-adv-x="567" />
<glyph unicode="!" glyph-name="exclam" horiz-adv-x="604" d="M227 1516H381V395H227V1516ZM227 0V260H381V0H227Z" />
<glyph unicode="&quot;" glyph-name="quotedbl" horiz-adv-x="633" d="M152 1053V1516H260V1053H152ZM381 1053V1516H483V1053H381Z" />
<glyph unicode="#" glyph-name="numbersign" horiz-adv-x="1137" d="M461 1004L612 1516H696L549 1004H731L885 1516H969L815 1004H1128L1092 885H784L709 633H1016L983 512H672L524 0H436L588 512H403L252 0H164L315 512H12L43 633H352L424 885H117L152 1004H461ZM512
885L436 633H621L696 885H512Z" />
<glyph unicode="$" glyph-name="dollar" horiz-adv-x="1137" d="M504 1489V1657H637V1489Q701 1483 757 1454Q816 1427 862 1381T938 1266T969 1116H823Q814 1180 798 1223Q783 1268 728 1312T575 1356Q512 1356 462 1326T382 1241Q367 1212 360 1186T352 1128Q352
1050 410 981Q465 917 571 893Q755 851 869 745T983 475Q983 403 959 331T889 198T777 99Q743 80 709 70T637 59V-109H504V59Q319 91 238 214T156 469H299Q299 193 571 193Q636 193 698 229T798 326T836 461Q836 542 793 612Q748 677 646 714L438 791Q334 830 270
911T205 1149Q205 1219 238 1290T338 1416T504 1489Z" />
<glyph unicode="%" glyph-name="percent" horiz-adv-x="1587" d="M96 1405Q125 1448 168 1476T266 1520T381 1536Q477 1536 558 1492T687 1366T735 1184Q735 1133 724 1089T688 1003Q641 921 560 874Q519 850 475 837T381 823Q308 823 246 850T132 932T52 1049T25
1188Q25 1246 43 1300T96 1405ZM172 1188Q172 1116 201 1069T279 995Q305 982 329 976T381 969Q424 969 460 983T530 1029Q592 1086 592 1196Q592 1242 577 1277T529 1339Q468 1389 385 1389Q326 1389 280 1367T203 1299T172 1188ZM1053 1516H1200L520 0H373L1053
1516ZM1444 580Q1485 535 1510 466T1536 319Q1536 227 1488 148T1356 20T1176 -29Q1106 -29 1044 -2T933 74T855 187Q840 220 832 253T823 319Q823 347 828 375T856 459Q883 529 929 579T1040 660T1180 692Q1257 692 1326 662T1444 580ZM973 340Q973 240 1033 181Q1063
152 1101 137T1184 121Q1227 121 1265 137T1335 182Q1397 241 1397 348Q1397 394 1381 429T1330 492Q1266 545 1180 545Q1096 545 1035 489T973 340Z" />
<glyph unicode="&amp;" glyph-name="ampersand" horiz-adv-x="1552" d="M336 231Q384 180 447 150Q480 134 511 126T575 117Q677 117 772 193T936 424L575 776Q430 717 347 627Q305 583 283 533T260 428Q260 381 279 333T336 231ZM621 948Q750 992 811 1058T872
1196Q872 1280 811 1336T664 1393Q561 1393 505 1338T449 1208Q449 1146 494 1081T621 948ZM348 1376Q375 1421 425 1459T537 1517T655 1536Q746 1536 831 1489T970 1362T1024 1188Q1024 1076 942 981T727 840L1016 555L1233 983H1405L1124 453L1503 76L1401 -29L1053
307Q984 155 854 63T575 -29Q456 -29 352 34T184 204Q152 258 135 315T117 432Q117 526 161 616T280 777T457 897Q384 962 340 1043Q318 1084 306 1125T293 1204Q293 1249 307 1291T348 1376Z" />
<glyph unicode="&apos;" glyph-name="quotesingle" horiz-adv-x="721" d="M369 1516H520L340 1120H188L369 1516Z" />
<glyph unicode="(" glyph-name="parenleft" horiz-adv-x="756" d="M117 655Q117 717 129 781T164 918Q207 1054 284 1177T466 1389T688 1516V1384Q602 1334 506 1236Q414 1142 345 992Q310 914 291 832T272 659Q272 516 312 371T445 94T688 -125V-260Q553 -209
444 -109T264 116T155 383T117 655Z" />
<glyph unicode=")" glyph-name="parenright" horiz-adv-x="756" d="M643 655Q643 591 634 523T606 384Q570 246 497 117T316 -110T72 -260V-125Q145 -83 204 -29T312 93Q406 226 446 373T487 659Q487 752 469 833T414 993Q347 1142 254 1237T72 1384V1516Q190
1480 294 1391T476 1178Q551 1058 597 917T643 655Z" />
<glyph unicode="*" glyph-name="asterisk" horiz-adv-x="872" d="M344 1296L231 1485L332 1540L436 1356L549 1540L643 1485L532 1296H739V1192H532L643 1012L549 956L436 1141L332 956L231 1012L344 1192H131V1296H344Z" />
<glyph unicode="+" glyph-name="plus" horiz-adv-x="1239" d="M104 545V700H545V1137H700V700H1141V545H700V100H545V545H104Z" />
<glyph unicode="," glyph-name="comma" horiz-adv-x="567" d="M369 260H520L336 -135H188L369 260Z" />
<glyph unicode="-" glyph-name="hyphen" horiz-adv-x="680" d="M63 684H621V549H63V684Z" />
<glyph unicode="." glyph-name="period" horiz-adv-x="567" d="M209 0V276H373V0H209Z" />
<glyph unicode="/" glyph-name="slash" horiz-adv-x="897" d="M84 -260L676 1516H815L215 -260H84Z" />
<glyph unicode="0" glyph-name="zero" horiz-adv-x="1137" d="M63 1012Q63 1170 134 1289T322 1474T563 1540Q676 1540 768 1500T930 1386T1037 1215T1075 1004V483Q1075 424 1064 371T1029 267Q987 174 913 106Q843 41 750 6T563 -29Q421 -29 306 42T127 233T63
487V1012ZM213 969V528Q213 407 255 315T378 172T559 121Q653 121 734 159T870 279T924 479V981Q924 1080 898 1156T827 1285T713 1365T563 1393Q516 1393 472 1381T386 1346Q310 1307 262 1214T213 969Z" />
<glyph unicode="1" glyph-name="one" horiz-adv-x="1137" d="M575 1380H319V1516H727V0H575V1380Z" />
<glyph unicode="2" glyph-name="two" horiz-adv-x="1137" d="M76 1024Q76 1189 145 1306T328 1482T567 1540Q685 1540 792 1480T966 1314T1032 1079Q1032 855 819 651L276 139H1032V0H68V135L743 793Q885 935 885 1079Q885 1163 843 1233T731 1346Q695 1368 659
1380T584 1393Q437 1393 332 1303T227 1024H76Z" />
<glyph unicode="3" glyph-name="three" horiz-adv-x="1137" d="M168 1141Q168 1203 182 1257T225 1359Q279 1448 363 1494T545 1540Q597 1540 645 1527T738 1487Q827 1435 879 1347T932 1155Q932 1103 917 1051T868 954T784 872Q860 830 917 770T1003 633T1032
475Q1032 344 969 229T796 45T553 -25Q457 -25 375 7T221 106T107 264Q86 313 75 364T63 475H219Q234 354 280 278T396 161T541 121Q626 121 704 164T831 284T881 453Q881 535 851 599T767 708T639 774T479 797H453V928Q583 928 683 979T784 1159Q784 1225 752
1279T666 1363T549 1393Q469 1393 401 1330Q338 1270 315 1141H168Z" />
<glyph unicode="4" glyph-name="four" horiz-adv-x="1137" d="M756 1516H944V416H1079V281H944V0H793V281H29V416L756 1516ZM793 1309L201 416H793V1309Z" />
<glyph unicode="5" glyph-name="five" horiz-adv-x="1137" d="M272 1516H956V1376H395L319 961Q382 994 448 1011T584 1028Q687 1028 777 986T934 869T1040 698T1079 500Q1079 370 1016 250T841 52Q784 14 724 -5T596 -25Q458 -25 338 29T137 198Q95 258 71 326T47
475H205Q211 407 241 344T322 228T438 145T567 113Q615 113 660 128T748 171Q829 225 876 313T924 500Q924 597 880 685T753 830Q713 857 669 871T575 885Q487 885 404 846T256 727L135 772L272 1516Z" />
<glyph unicode="6" glyph-name="six" horiz-adv-x="1137" d="M172 872L604 1516H780L424 987Q490 1020 588 1020Q721 1020 834 945T1015 742T1083 469Q1083 407 1064 349T1007 225Q944 113 829 44T559 -25Q418 -25 306 47T129 240T51 500Q51 597 81 688T172 872ZM281
743Q246 701 226 643T205 512Q205 421 250 325Q292 235 375 177Q416 149 464 135T571 121Q660 121 744 171T880 311T932 500Q932 575 905 642T826 764T705 849T559 881Q509 881 458 867T358 818Q315 788 281 743Z" />
<glyph unicode="7" glyph-name="seven" horiz-adv-x="1137" d="M223 0L848 1380H131V1516H1008V1380L385 0H223Z" />
<glyph unicode="8" glyph-name="eight" horiz-adv-x="1137" d="M563 -29Q426 -29 317 40T148 217T88 440Q88 482 95 523T119 607Q147 687 202 749T340 848Q287 872 248 917T186 1026Q176 1055 170 1086T164 1149Q164 1219 192 1292Q217 1360 268 1415T395 1505Q435
1522 478 1531T571 1540Q655 1540 730 1508T859 1420T941 1294Q955 1258 962 1224T969 1149Q969 1055 926 976T793 844Q877 806 936 742Q991 682 1022 604Q1038 563 1045 529T1053 457Q1053 329 988 217T811 38T563 -29ZM315 1149Q315 1094 336 1050T399 971Q478
907 575 907Q622 907 663 926T745 983Q819 1052 819 1149Q819 1258 744 1327T563 1397Q516 1397 473 1380T390 1327Q315 1261 315 1149ZM328 664Q284 614 260 557T236 436Q236 354 284 276Q329 204 402 162Q441 140 479 129T563 117Q607 117 648 129T731 165Q806
207 851 281T897 444Q897 533 851 605T726 718T559 760Q415 760 328 664Z" />
<glyph unicode="9" glyph-name="nine" horiz-adv-x="1137" d="M213 1393Q281 1462 376 1501T571 1540Q678 1540 771 1496T933 1376T1040 1201T1079 995Q1079 817 983 676L532 0H352L713 524Q668 505 623 494T532 483Q464 483 403 504T285 566Q177 646 114 770Q83
833 65 899T47 1028Q47 1094 67 1158T123 1283T213 1393ZM385 1343Q298 1277 253 1192Q231 1150 218 1104T205 1012Q205 963 218 916T257 826Q305 742 387 691Q430 664 473 651T567 637Q659 637 743 679T880 805T932 1008Q932 1088 906 1159T830 1282T714 1363T571
1393Q481 1393 385 1343Z" />
<glyph unicode=":" glyph-name="colon" horiz-adv-x="567" d="M209 260H360V0H209V260ZM209 1044H360V788H209V1044Z" />
<glyph unicode=";" glyph-name="semicolon" horiz-adv-x="567" d="M264 788V1044H416V788H264ZM84 -135L264 260H416L236 -135H84Z" />
<glyph unicode="&lt;" glyph-name="less" horiz-adv-x="1239" d="M100 684L1145 1159V1008L297 616L1145 223V76L100 553V684Z" />
<glyph unicode="=" glyph-name="equal" horiz-adv-x="1239" d="M104 893H1137V739H104V893ZM1137 496V340H104V496H1137Z" />
<glyph unicode="&gt;" glyph-name="greater" horiz-adv-x="1239" d="M1149 680V553L104 76V223L952 616L104 1008V1155L1149 680Z" />
<glyph unicode="?" glyph-name="question" horiz-adv-x="1212" d="M541 260H692V0H541V260ZM131 1040Q131 1195 196 1305T365 1475Q420 1506 474 1523T584 1540Q636 1540 679 1533T771 1509Q860 1479 927 1420T1034 1273Q1054 1230 1064 1181T1075 1079Q1075 977
1027 902Q1003 865 967 822T881 728Q789 633 741 561T692 395H541Q541 528 592 616T742 799Q836 888 882 949Q924 1006 924 1096Q924 1165 896 1221T816 1319Q718 1397 575 1397Q538 1397 504 1385T432 1347Q367 1302 322 1222Q301 1182 289 1135T276 1040H131Z"
/>
<glyph unicode="@" glyph-name="at" horiz-adv-x="1776" d="M897 1540L915 1541L938 1542Q998 1542 1052 1534T1168 1507Q1281 1473 1384 1397T1554 1197Q1591 1130 1611 1060T1632 911L1633 892L1634 870Q1634 758 1591 653T1476 464T1318 331T1155 281Q1096
281 1052 308T977 391Q923 341 863 315T731 289Q687 289 648 301T569 340Q497 388 469 465Q456 500 448 538T440 621Q440 752 507 895T688 1132T944 1225Q1031 1225 1097 1189T1184 1087L1217 1184H1356L1124 483L1120 455Q1120 401 1184 395Q1229 395 1285 425T1396
518Q1423 549 1445 585T1488 672T1520 774T1532 881Q1532 983 1492 1083T1373 1263T1182 1392T928 1440H924Q778 1440 653 1381T440 1226T302 1008T252 768Q252 608 308 479T457 261T671 124Q731 101 794 89T920 76Q1001 76 1076 94T1229 151Q1377 224 1481 360H1599Q1528
236 1421 151T1188 23T932 -20Q783 -20 648 30T399 180T217 422Q183 495 163 575T143 739Q143 961 243 1139T519 1426Q611 1482 703 1511T897 1540ZM731 981Q694 949 646 831Q621 767 609 715T596 612Q596 540 622 495T700 432Q715 428 729 425T756 422Q841 422
919 507T1044 716T1092 940Q1092 1010 1061 1055T961 1100Q841 1100 731 981Z" />
<glyph unicode="A" glyph-name="A" horiz-adv-x="1516" d="M676 1516H844L1495 0H1331L1108 508H408L188 0H25L676 1516ZM760 1339L465 647H1053L760 1339Z" />
<glyph unicode="B" glyph-name="B" horiz-adv-x="1176" d="M549 1516Q695 1516 802 1467T968 1331Q998 1287 1015 1240T1032 1141Q1032 1029 996 953T872 809Q996 749 1056 654T1116 408Q1116 331 1084 259T988 128T833 34T629 0H156V1516H549ZM307 1376V868H553Q690
868 787 931T885 1133Q885 1194 859 1240T786 1317Q695 1376 555 1376H307ZM307 731V135H584Q961 135 961 440Q961 534 913 599T773 698T559 731H307Z" />
<glyph unicode="C" glyph-name="C" horiz-adv-x="1665" d="M96 864Q113 1017 183 1142T363 1357T608 1493T881 1540Q933 1540 981 1534T1082 1514Q1183 1490 1272 1440T1438 1310T1573 1128H1405Q1341 1214 1256 1273T1076 1361Q1028 1375 983 1382T889 1389Q764
1389 649 1345T442 1216T298 1011T244 752Q244 615 297 500T443 298T650 164Q710 140 767 129T885 117Q958 117 1030 135T1174 190Q1313 259 1411 395H1579Q1517 287 1440 209T1271 78T1082 1T885 -25Q734 -25 591 31T335 192T156 443T90 762Q90 810 96 864Z" />
<glyph unicode="D" glyph-name="D" horiz-adv-x="1524" d="M156 0V1516H567Q780 1516 944 1455T1216 1289T1381 1041Q1408 971 1422 897T1436 743Q1436 520 1324 351T1031 91T647 0H156ZM307 1380V139H541Q694 139 822 174T1051 282T1213 470Q1245 530 1264 599T1284
743Q1284 871 1242 985T1109 1188T883 1329T567 1380H307Z" />
<glyph unicode="E" glyph-name="E" horiz-adv-x="1096" d="M156 0V1516H983V1376H307V831H961V696H307V135H983V0H156Z" />
<glyph unicode="F" glyph-name="F" horiz-adv-x="991" d="M156 0V1516H924V1376H307V831H899V696H307V0H156Z" />
<glyph unicode="G" glyph-name="G" horiz-adv-x="1784" d="M92 756Q92 936 161 1082T344 1330T598 1484Q669 1511 739 1525T881 1540Q990 1540 1101 1512Q1156 1499 1208 1480T1310 1432Q1406 1380 1485 1300T1612 1112H1436Q1382 1204 1295 1267T1101 1364T885
1397Q814 1397 747 1382T617 1336Q498 1281 416 1191T287 985T240 756Q240 616 297 498T450 296T662 167Q722 143 777 130T885 117Q1003 117 1135 163T1374 310T1520 563H676V700H1704Q1674 462 1557 301T1263 57T889 -25Q811 -25 739 -10T588 38Q446 97 331 206Q222
311 157 454T92 756Z" />
<glyph unicode="H" glyph-name="H" horiz-adv-x="1401" d="M156 0V1516H307V852H1096V1516H1243V0H1096V713H307V0H139H156Z" />
<glyph unicode="I" glyph-name="I" horiz-adv-x="465" d="M307 0H156V1516H307V0Z" />
<glyph unicode="J" glyph-name="J" horiz-adv-x="987" d="M680 395V1516H831V420Q831 276 777 175T632 24T436 -25Q332 -25 238 21T85 157T25 360H172Q178 304 201 260T262 183Q300 152 343 135Q368 126 388 122T432 117Q493 117 551 149T645 243T680 395Z" />
<glyph unicode="K" glyph-name="K" horiz-adv-x="1212" d="M152 0V1511H303V641L1004 1511H1196L600 772L1192 0H1004L500 651L303 408V0H135H152Z" />
<glyph unicode="L" glyph-name="L" horiz-adv-x="948" d="M307 135L936 139V0H156V1516H307V135Z" />
<glyph unicode="M" glyph-name="M" horiz-adv-x="1884" d="M156 0V1516H391L944 223L1495 1516H1729V0H1577V1348L1008 0H877L307 1348V0H156Z" />
<glyph unicode="N" glyph-name="N" horiz-adv-x="1516" d="M307 0H156V1516H360L1208 260V1516H1360V0H1208L307 1331V0Z" />
<glyph unicode="O" glyph-name="O" horiz-adv-x="1780" d="M92 772Q92 959 195 1137T481 1428T885 1540Q1050 1540 1198 1480T1456 1311T1629 1055T1692 739Q1692 521 1568 340Q1449 164 1262 68T872 -29Q803 -29 734 -13T589 34Q451 91 339 195T159 447T92 772ZM244
780Q244 695 259 623T307 481Q367 354 464 274Q558 198 671 160T885 121Q991 121 1101 157T1308 268T1468 463Q1503 529 1521 596T1540 743Q1540 888 1486 1010T1339 1218T1127 1351T889 1397Q758 1397 640 1345T433 1203T294 1000T244 780Z" />
<glyph unicode="P" glyph-name="P" horiz-adv-x="1212" d="M156 0V1516H553Q643 1516 718 1507T860 1478Q992 1440 1070 1344Q1111 1293 1135 1229T1159 1087L1161 1047Q1161 921 1095 822T907 667T637 612H307V0H156ZM307 1380V748H621Q722 748 796 772T917 841T986
951T1008 1087Q1008 1166 977 1222T884 1313Q768 1380 571 1380H307Z" />
<glyph unicode="Q" glyph-name="Q" horiz-adv-x="1784" d="M109 911Q148 1070 226 1186T413 1384Q519 1461 643 1500Q702 1518 767 1529T897 1540Q1046 1540 1187 1495T1441 1359T1627 1130T1716 809V731Q1716 395 1464 188Q1511 151 1557 132T1657 113L1696 117V-25Q1586
-25 1500 9T1356 104Q1241 37 1122 2T889 -33Q723 -33 580 31T326 209T150 465Q119 537 104 608T88 752Q88 804 93 838T109 911ZM268 571Q427 625 592 625Q694 625 797 604T993 542Q1040 523 1088 497T1183 438Q1279 374 1360 293Q1569 469 1569 739Q1569 819 1556
877Q1535 994 1479 1088T1337 1251T1142 1357Q1084 1376 1026 1386T903 1397Q780 1397 660 1349T448 1214T300 1005T244 748Q244 708 251 662Q253 647 268 571ZM328 444Q429 280 581 199Q657 160 738 139T899 117Q999 117 1083 140T1237 209Q1166 278 1083 332T917
419T746 469T571 487Q441 487 328 444Z" />
<glyph unicode="R" glyph-name="R" horiz-adv-x="1243" d="M156 0V1516H563Q748 1516 871 1472T1060 1358T1150 1212T1184 1044Q1184 917 1127 808T966 633T735 567L1163 0H973L457 688H584Q718 688 820 727T977 844Q1004 882 1018 927T1032 1028Q1032 1137 973
1215T815 1335T612 1376H307V0H156Z" />
<glyph unicode="S" glyph-name="S" horiz-adv-x="1020" d="M209 424Q209 332 259 259Q303 191 376 156T528 121Q644 121 733 207T823 412Q823 507 776 580Q733 648 608 693L364 776Q244 817 169 895T94 1130L95 1148L96 1171Q96 1211 106 1247T136 1322Q170 1387
230 1437T365 1513T516 1540Q639 1540 734 1481T883 1331T936 1153V1133H784Q768 1259 696 1321T520 1393Q451 1393 390 1363T289 1278Q254 1227 248 1163Q248 1022 321 968T557 867T821 750T965 516Q973 455 973 420Q973 343 944 263T859 119T716 15T520 -25Q416
-25 328 8T176 104T78 249T43 424H209Z" />
<glyph unicode="T" glyph-name="T" horiz-adv-x="872" d="M365 0V1380H16V1516H860V1380H516V0H365Z" />
<glyph unicode="U" glyph-name="U" horiz-adv-x="1339" d="M156 504V1516H307V512Q307 393 358 301T495 162Q537 139 581 126T672 113Q765 113 850 162T985 309T1036 545V1516H1188V549Q1188 364 1116 235T925 40T672 -25Q575 -25 482 9T316 113T199 281T156 504Z" />
<glyph unicode="V" glyph-name="V" horiz-adv-x="1436" d="M643 0L20 1516H188L717 188L1251 1516H1419L788 0H643Z" />
<glyph unicode="W" glyph-name="W" horiz-adv-x="1968" d="M1419 197L1792 1516H1948L1516 0H1317L983 1239L647 0H453L20 1516H176L549 197L911 1516H1057L1419 197Z" />
<glyph unicode="X" glyph-name="X" horiz-adv-x="1247" d="M16 0L532 776L47 1516H223L625 907L1024 1516H1200L713 776L1233 0H1057L625 647L197 0H16Z" />
<glyph unicode="Y" glyph-name="Y" horiz-adv-x="1212" d="M532 0V508L4 1516H168L608 664L1044 1516H1212L680 508V0H532Z" />
<glyph unicode="Z" glyph-name="Z" horiz-adv-x="983" d="M780 1380H55V1516H948V1380L209 135H973V0H37V135L780 1380Z" />
<glyph unicode="[" glyph-name="bracketleft" horiz-adv-x="721" d="M377 965V299Q377 196 405 126T477 9T571 -65L641 -104V-260Q556 -244 460 -175T294 11Q261 69 244 132T227 268V940Q227 1134 325 1289T643 1516V1360Q549 1328 463 1226T377 965Z" />
<glyph unicode="\" glyph-name="backslash" horiz-adv-x="1239" d="M172 1516H319L952 0H811L172 1516Z" />
<glyph unicode="]" glyph-name="bracketright" horiz-adv-x="721" d="M344 965Q344 1076 301 1159T195 1291T76 1360V1516Q189 1480 271 1419T401 1280T470 1118T492 940V268Q492 127 426 12T263 -172T80 -260V-104L149 -65Q201 -35 243 8T314 124T344 299V965Z" />
<glyph unicode="^" glyph-name="asciicircum" horiz-adv-x="1239" d="M37 373L559 1516H676L1204 373H1075L616 1360L168 373H37Z" />
<glyph unicode="_" glyph-name="underscore" horiz-adv-x="1024" d="M0 -135H1024V-256H0V-135Z" />
<glyph unicode="`" glyph-name="grave" horiz-adv-x="776" d="M152 1473L215 1595L625 1376L555 1255L152 1473Z" />
<glyph unicode="a" glyph-name="a" horiz-adv-x="1401" d="M84 553Q84 728 171 865T396 1075T684 1149Q751 1149 815 1134T938 1088Q1053 1031 1124 903V1120H1272V0H1124V213Q1063 103 942 39T672 -25Q597 -25 525 -5T383 52Q249 124 167 254T84 553ZM240 588Q240
450 300 344T461 180Q512 151 564 136T672 121Q764 121 848 156T995 255T1091 395T1124 553Q1124 643 1093 722T1000 863T861 960Q821 978 779 988T692 999Q560 999 459 936T299 775T240 588Z" />
<glyph unicode="b" glyph-name="b" horiz-adv-x="1397" d="M129 0V1516H285V907Q341 1008 455 1075Q515 1110 577 1129T709 1149Q838 1149 948 1102T1138 977T1264 799Q1289 746 1301 700T1313 604Q1313 435 1246 294T1047 63Q982 20 905 -4T743 -29Q583 -29 460
30T272 197V0H129ZM272 596Q272 467 319 362T472 189T739 121Q847 121 945 179T1101 343T1159 584Q1159 670 1122 746T1020 880T876 968T713 999Q623 999 519 952T344 813T272 596Z" />
<glyph unicode="c" glyph-name="c" horiz-adv-x="1323" d="M88 563Q88 738 172 869T388 1072Q456 1108 525 1128T664 1149Q783 1149 900 1110Q957 1091 1007 1062T1105 991Q1194 912 1247 784H1075Q1014 889 909 944T664 999Q602 999 548 982T441 930Q345 869
293 770Q267 721 254 669T240 563Q240 445 297 344T455 184Q506 154 562 138T680 121Q809 121 915 179T1079 328H1247Q1203 241 1142 172T1014 61T863 -3Q824 -13 779 -19T688 -25Q533 -25 396 50T171 259T84 555L87 559L88 563Z" />
<glyph unicode="d" glyph-name="d" horiz-adv-x="1405" d="M88 612Q102 770 186 890T398 1078Q463 1112 528 1130T659 1149Q804 1149 926 1095T1124 924V1516H1276V0H1133V213Q1056 96 943 36T668 -25Q602 -25 533 -4T394 57Q259 132 173 264T86 565Q86 578 86
589T88 612ZM244 625L240 563Q240 456 297 354T456 186Q508 154 563 138T680 121Q789 121 894 176T1066 336Q1099 389 1116 449T1133 580Q1133 655 1086 754T936 926T680 999Q646 999 619 995T552 979Q485 960 422 917T310 799T244 625Z" />
<glyph unicode="e" glyph-name="e" horiz-adv-x="1331" d="M88 567Q88 695 141 809Q190 917 273 992T460 1108Q512 1128 564 1138T668 1149Q776 1149 878 1110T1065 995T1200 803T1251 537V508H240Q240 463 252 423T288 340Q330 267 393 218T528 145T664 121Q787
121 906 193T1065 369H1221Q1203 319 1179 276T1123 194Q1062 119 986 71T824 -1T655 -25Q584 -25 516 -5T377 55Q246 130 167 262T88 567ZM1104 643Q1086 737 1026 820T871 954T672 1004Q528 1004 432 936T292 783T240 643H1104Z" />
<glyph unicode="f" glyph-name="f" horiz-adv-x="643" d="M209 0V981H37V1116H209Q209 1248 257 1335T402 1466T641 1511V1372Q513 1372 435 1320T356 1133L360 1116H641V981H360V0H209Z" />
<glyph unicode="g" glyph-name="g" horiz-adv-x="1380" d="M88 563Q88 737 169 870T382 1075Q448 1112 512 1130T643 1149Q742 1149 835 1119T999 1032T1108 899V1124H1251V96Q1251 14 1232 -58T1174 -190Q1099 -309 972 -368T700 -428Q608 -428 518 -404T347
-327T210 -198T129 -25H276Q311 -109 377 -169T524 -259T692 -289Q802 -289 898 -244T1051 -109T1108 100V223Q1042 100 934 38T672 -25Q565 -25 464 12T279 126T140 315Q114 372 101 432T88 563ZM240 592Q240 486 272 401T366 250Q424 190 504 156T668 121Q757
121 861 169T1037 322T1108 580Q1108 661 1074 735T979 868T831 963T655 999Q595 999 544 986T448 945Q365 895 321 826T258 690T240 592Z" />
<glyph unicode="h" glyph-name="h" horiz-adv-x="1247" d="M131 0V1516H285V961Q342 1053 433 1099T629 1145Q721 1145 810 1110T970 1010T1082 851T1124 647V0H973V647Q973 732 946 796T868 906T754 973T625 995Q485 995 385 908T285 664V0H131Z" />
<glyph unicode="i" glyph-name="i" horiz-adv-x="408" d="M129 0V1120H281V0H129ZM129 1255V1516H281V1255H129Z" />
<glyph unicode="j" glyph-name="j" horiz-adv-x="416" d="M135 63V1120H289V16Q289 -130 207 -254Q165 -319 90 -355T-92 -391V-244Q9 -244 72 -182T135 63ZM289 1516V1255H135V1516H289Z" />
<glyph unicode="k" glyph-name="k" horiz-adv-x="1028" d="M129 0V1516H281V453L797 1120H987L555 559L1020 0H823L461 444L281 213V0H129Z" />
<glyph unicode="l" glyph-name="l" horiz-adv-x="408" d="M129 0V1516H281V0H129Z" />
<glyph unicode="m" glyph-name="m" horiz-adv-x="1921" d="M129 1120H272V969Q299 1024 345 1064T449 1124T571 1145Q690 1145 796 1089T965 932Q1025 1035 1120 1088T1323 1141Q1439 1141 1548 1085T1725 927T1792 700V0H1645V676Q1645 780 1601 851T1482 958T1327
995Q1211 995 1126 921T1040 713V0H885V688Q885 779 840 850T720 958T563 995Q490 995 425 962T321 859T281 692V0H129V1120Z" />
<glyph unicode="n" glyph-name="n" horiz-adv-x="1247" d="M129 0V1120H272V952Q310 1015 363 1056T487 1121T629 1145Q723 1145 809 1112T967 1012T1079 850T1120 633V0H973V633Q973 751 924 831T793 953T621 995Q535 995 456 956T329 839T281 651V0H129Z" />
<glyph unicode="o" glyph-name="o" horiz-adv-x="1339" d="M88 580Q88 691 133 792T259 974T452 1100T692 1145Q813 1145 941 1076T1160 881Q1247 760 1260 612L1261 593L1262 569Q1262 444 1216 338T1085 147Q1004 66 897 21T672 -25Q566 -25 463 14T274 132T139
324T88 580ZM236 571Q236 435 295 335T456 178Q509 149 563 133T676 117Q777 117 875 170T1038 326T1104 571Q1104 627 1090 677T1045 779Q987 876 886 937T676 999Q568 999 466 942T300 787T236 571Z" />
<glyph unicode="p" glyph-name="p" horiz-adv-x="1397" d="M135 -391V1124H281V924Q353 1032 465 1089Q521 1118 582 1133T709 1149Q825 1149 934 1108T1130 992T1267 814Q1294 761 1307 706T1321 588Q1321 413 1242 275T1025 57Q955 17 880 -4T725 -25Q580 -25
462 38T289 215V-391H135ZM276 553Q276 504 289 454T326 354Q374 258 474 191Q524 158 588 140T727 121Q813 121 891 153T1030 244T1127 385T1163 559Q1163 677 1105 778T943 939T713 999Q663 999 620 989T533 959Q453 923 396 861T308 719T276 553Z" />
<glyph unicode="q" glyph-name="q" horiz-adv-x="1397" d="M647 1149Q698 1149 744 1143T841 1123Q936 1098 1012 1046T1128 920V1124H1272V-391H1120V213Q1093 147 1027 93T865 6Q817 -9 770 -17T672 -25Q596 -25 526 -4T381 60Q249 135 169 267T88 563Q88 625
100 679T137 793Q181 900 256 974T428 1092T647 1149ZM300 334Q359 238 460 179Q511 151 563 136T672 121Q794 121 898 175T1065 328T1128 549Q1128 642 1098 724T1012 866T870 962T680 999Q561 999 460 940T297 777T236 553L239 551Q240 432 300 334Z" />
<glyph unicode="r" glyph-name="r" horiz-adv-x="616" d="M131 0V1124H272V956Q319 1052 405 1100T600 1149V995Q528 995 453 955T329 846T281 692V0H131Z" />
<glyph unicode="s" glyph-name="s" horiz-adv-x="797" d="M80 793L78 838Q78 913 107 971T180 1066T284 1125Q313 1135 339 1140T391 1145Q447 1145 503 1127T606 1072T681 976Q696 946 704 913T713 844H559Q559 884 547 913T508 962Q460 999 391 999Q333 999
279 960Q252 940 238 911T223 844L236 788Q251 733 340 696L521 625Q612 591 675 525T739 334L735 272Q717 123 612 49T387 -25Q286 -25 207 21T82 149T37 328L188 332Q188 285 204 246T253 177T321 130T395 113Q434 113 467 128T531 174Q588 230 588 307Q588 375
543 431T403 512Q274 548 184 609T80 793Z" />
<glyph unicode="t" glyph-name="t" horiz-adv-x="696" d="M260 0V983H25V1120H260V1516H412V1120H672V983H412V0H260Z" />
<glyph unicode="u" glyph-name="u" horiz-adv-x="1243" d="M129 453V1120H281V475Q281 364 326 282T452 157T616 113Q704 113 785 158T916 293T965 508V1120H1116V0H977V176Q926 77 826 23Q775 -3 723 -16T608 -29Q487 -29 378 26T199 192T129 453Z" />
<glyph unicode="v" glyph-name="v" horiz-adv-x="1137" d="M487 0L16 1120H180L567 193L956 1120H1120L643 0H487Z" />
<glyph unicode="w" glyph-name="w" horiz-adv-x="1700" d="M848 743L612 0H440L16 1120H176L528 180L788 983H911L1171 184L1528 1120H1688L1264 0H1087L848 743Z" />
<glyph unicode="x" glyph-name="x" horiz-adv-x="983" d="M16 0L399 571L16 1120H197L492 688L793 1120H969L584 567L969 0H793L492 449L197 0H16Z" />
<glyph unicode="y" glyph-name="y" horiz-adv-x="1096" d="M449 37L20 1120H180L541 227L920 1120H1079L432 -391H272L449 37Z" />
<glyph unicode="z" glyph-name="z" horiz-adv-x="872" d="M209 135H852V0H20V135L629 983H41V1120H811V983L209 135Z" />
<glyph unicode="{" glyph-name="braceleft" horiz-adv-x="721" d="M80 629Q138 643 191 684T244 801V1233Q244 1356 301 1436T555 1516Q470 1489 431 1434T391 1288V868Q391 772 346 710T209 629Q296 613 343 556T391 412V-29Q391 -110 414 -156T469 -223T555
-260L514 -262Q394 -262 319 -206T244 -29V461Q244 528 194 571T80 629Z" />
<glyph unicode="|" glyph-name="bar" horiz-adv-x="1376" d="M625 0V1516H756V0H625Z" />
<glyph unicode="}" glyph-name="braceright" horiz-adv-x="721" d="M549 629Q490 620 438 573T385 461V-29Q385 -260 72 -260Q131 -237 160 -218Q188 -202 212 -156T236 -29V412Q236 498 284 556T420 629Q236 667 236 872V1288Q236 1379 199 1435T72 1516L117
1518Q232 1518 290 1476T367 1373T385 1233V805Q385 761 402 730T445 679T501 647L549 629Z" />
<glyph unicode="~" glyph-name="asciitilde" horiz-adv-x="1239" d="M100 537L151 610Q185 659 220 690T302 743T408 764Q462 764 509 749Q532 742 560 731T623 702L737 652Q779 635 831 629Q882 629 924 656T994 718L1053 801L1141 705Q1073 587 1002 528Q965
498 926 484T840 469Q786 469 719 494T570 567T416 616Q281 616 188 436L100 537Z" />
</font>
</defs>
</svg>
